<svg xmlns="http://www.w3.org/2000/svg" xmlns:xlink="http://www.w3.org/1999/xlink" x="0px" y="0px" width="64px" height="64px" viewBox="0 0 64 64"><g transform="translate(0, 0)"><path data-color="color-2" d="M31.206,44.607a1,1,0,0,0,1.588,0l13-17A1,1,0,0,0,45,26H35V6a3,3,0,0,0-6,0V26H19a1,1,0,0,0-.794,1.607Z" fill="#444444"></path><path d="M60,41a1,1,0,0,0-1,1V53a4,4,0,0,1-4,4H9a4,4,0,0,1-4-4V42a1,1,0,0,0-2,0V53a6.006,6.006,0,0,0,6,6H55a6.006,6.006,0,0,0,6-6V42A1,1,0,0,0,60,41Z" fill="#444444"></path></g></svg>